<svg id="visual" viewBox="0 0 960 540" width="960" height="540" xmlns="http://www.w3.org/2000/svg" xmlns:xlink="http://www.w3.org/1999/xlink" version="1.1"><rect x="0" y="0" width="960" height="540" fill="#000"></rect><g transform="translate(477.66252407882877 254.17362343818365)"><path d="M88.1 -105.1C120.2 -98 156.4 -80.3 158.5 -55.8C160.5 -31.3 128.4 0 115.5 36.9C102.6 73.7 108.9 116.1 92.9 138.6C76.8 161 38.4 163.5 8.6 151.7C-21.2 139.8 -42.3 113.6 -69.3 94.7C-96.2 75.8 -128.9 64.1 -143.7 41.3C-158.5 18.5 -155.3 -15.5 -146.2 -48.7C-137.1 -82 -122 -114.6 -96.7 -123.9C-71.3 -133.2 -35.7 -119.1 -3.8 -113.8C28 -108.6 56 -112.1 88.1 -105.1" fill="#2b2b2b"></path></g></svg>