<svg id="visual" viewBox="0 0 960 540" width="960" height="540" xmlns="http://www.w3.org/2000/svg" xmlns:xlink="http://www.w3.org/1999/xlink" version="1.1"><rect x="0" y="0" width="960" height="540" fill="#000"></rect><defs><linearGradient id="grad1_0" x1="43.8%" y1="100%" x2="100%" y2="0%"><stop offset="14.444444444444446%" stop-color="#ff0000" stop-opacity="1"></stop><stop offset="85.55555555555554%" stop-color="#ff0000" stop-opacity="1"></stop></linearGradient></defs><defs><linearGradient id="grad1_1" x1="43.8%" y1="100%" x2="100%" y2="0%"><stop offset="14.444444444444446%" stop-color="#ff0000" stop-opacity="1"></stop><stop offset="85.55555555555554%" stop-color="#d20000" stop-opacity="1"></stop></linearGradient></defs><defs><linearGradient id="grad1_2" x1="43.8%" y1="100%" x2="100%" y2="0%"><stop offset="14.444444444444446%" stop-color="#a60000" stop-opacity="1"></stop><stop offset="85.55555555555554%" stop-color="#d20000" stop-opacity="1"></stop></linearGradient></defs><defs><linearGradient id="grad1_3" x1="43.8%" y1="100%" x2="100%" y2="0%"><stop offset="14.444444444444446%" stop-color="#a60000" stop-opacity="1"></stop><stop offset="85.55555555555554%" stop-color="#7e0000" stop-opacity="1"></stop></linearGradient></defs><defs><linearGradient id="grad1_4" x1="43.8%" y1="100%" x2="100%" y2="0%"><stop offset="14.444444444444446%" stop-color="#000000" stop-opacity="1"></stop><stop offset="85.55555555555554%" stop-color="#7e0000" stop-opacity="1"></stop></linearGradient></defs><defs><linearGradient id="grad2_0" x1="0%" y1="100%" x2="56.3%" y2="0%"><stop offset="14.444444444444446%" stop-color="#ff0000" stop-opacity="1"></stop><stop offset="85.55555555555554%" stop-color="#ff0000" stop-opacity="1"></stop></linearGradient></defs><defs><linearGradient id="grad2_1" x1="0%" y1="100%" x2="56.3%" y2="0%"><stop offset="14.444444444444446%" stop-color="#d20000" stop-opacity="1"></stop><stop offset="85.55555555555554%" stop-color="#ff0000" stop-opacity="1"></stop></linearGradient></defs><defs><linearGradient id="grad2_2" x1="0%" y1="100%" x2="56.3%" y2="0%"><stop offset="14.444444444444446%" stop-color="#d20000" stop-opacity="1"></stop><stop offset="85.55555555555554%" stop-color="#a60000" stop-opacity="1"></stop></linearGradient></defs><defs><linearGradient id="grad2_3" x1="0%" y1="100%" x2="56.3%" y2="0%"><stop offset="14.444444444444446%" stop-color="#7e0000" stop-opacity="1"></stop><stop offset="85.55555555555554%" stop-color="#a60000" stop-opacity="1"></stop></linearGradient></defs><defs><linearGradient id="grad2_4" x1="0%" y1="100%" x2="56.3%" y2="0%"><stop offset="14.444444444444446%" stop-color="#7e0000" stop-opacity="1"></stop><stop offset="85.55555555555554%" stop-color="#000000" stop-opacity="1"></stop></linearGradient></defs><g transform="translate(960, 540)"><path d="M-432 0C-439.5 -36.2 -447 -72.5 -421.2 -96.1C-395.4 -119.8 -336.2 -130.8 -306.3 -147.5C-276.4 -164.2 -275.8 -186.6 -275.2 -219.5C-274.6 -252.4 -274.2 -295.8 -257.5 -322.9C-240.8 -350 -207.9 -360.9 -177 -367.6C-146.2 -374.3 -117.5 -377 -88.3 -387C-59.2 -397.1 -29.6 -414.5 0 -432L0 0Z" fill="#6b0000"></path><path d="M-345.6 0C-351.6 -29 -357.6 -58 -336.9 -76.9C-316.3 -95.8 -269 -104.7 -245.1 -118C-221.1 -131.4 -220.6 -149.3 -220.2 -175.6C-219.7 -201.9 -219.4 -236.6 -206 -258.3C-192.6 -280 -166.3 -288.7 -141.6 -294.1C-117 -299.5 -94 -301.6 -70.7 -309.6C-47.4 -317.7 -23.7 -331.6 0 -345.6L0 0Z" fill="#920000"></path><path d="M-259.2 0C-263.7 -21.7 -268.2 -43.5 -252.7 -57.7C-237.2 -71.9 -201.7 -78.5 -183.8 -88.5C-165.9 -98.5 -165.5 -111.9 -165.1 -131.7C-164.8 -151.4 -164.5 -177.5 -154.5 -193.7C-144.5 -210 -124.7 -216.5 -106.2 -220.6C-87.7 -224.6 -70.5 -226.2 -53 -232.2C-35.5 -238.3 -17.8 -248.7 0 -259.2L0 0Z" fill="#bc0000"></path><path d="M-172.8 0C-175.8 -14.5 -178.8 -29 -168.5 -38.5C-158.1 -47.9 -134.5 -52.3 -122.5 -59C-110.6 -65.7 -110.3 -74.6 -110.1 -87.8C-109.9 -100.9 -109.7 -118.3 -103 -129.2C-96.3 -140 -83.1 -144.3 -70.8 -147C-58.5 -149.7 -47 -150.8 -35.3 -154.8C-23.7 -158.8 -11.8 -165.8 0 -172.8L0 0Z" fill="#e80000"></path><path d="M-86.4 0C-87.9 -7.2 -89.4 -14.5 -84.2 -19.2C-79.1 -24 -67.2 -26.2 -61.3 -29.5C-55.3 -32.8 -55.2 -37.3 -55 -43.9C-54.9 -50.5 -54.8 -59.2 -51.5 -64.6C-48.2 -70 -41.6 -72.2 -35.4 -73.5C-29.2 -74.9 -23.5 -75.4 -17.7 -77.4C-11.8 -79.4 -5.9 -82.9 0 -86.4L0 0Z" fill="#ff0000"></path></g><g transform="translate(0, 0)"><path d="M432 0C438 35.6 444.1 71.2 421.2 96.1C398.3 121 346.4 135.2 318 153.2C289.7 171.1 284.9 192.8 276 220.1C267.1 247.4 254.1 280.4 226.3 283.8C198.5 287.2 155.8 261 132.3 274.8C108.8 288.6 104.5 342.5 85.7 375.3C66.8 408.2 33.4 420.1 0 432L0 0Z" fill="#6b0000"></path><path d="M345.6 0C350.4 28.5 355.3 57 336.9 76.9C318.6 96.8 277.1 108.2 254.4 122.5C231.8 136.9 227.9 154.2 220.8 176.1C213.7 197.9 203.3 224.3 181.1 227C158.8 229.8 124.7 208.8 105.9 219.8C87.1 230.9 83.6 274 68.5 300.3C53.4 326.6 26.7 336.1 0 345.6L0 0Z" fill="#920000"></path><path d="M259.2 0C262.8 21.4 266.4 42.7 252.7 57.7C239 72.6 207.8 81.1 190.8 91.9C173.8 102.7 170.9 115.7 165.6 132.1C160.3 148.5 152.5 168.3 135.8 170.3C119.1 172.3 93.5 156.6 79.4 164.9C65.3 173.2 62.7 205.5 51.4 225.2C40.1 244.9 20 252.1 0 259.2L0 0Z" fill="#bc0000"></path><path d="M172.8 0C175.2 14.2 177.6 28.5 168.5 38.5C159.3 48.4 138.6 54.1 127.2 61.3C115.9 68.4 113.9 77.1 110.4 88C106.8 99 101.7 112.2 90.5 113.5C79.4 114.9 62.3 104.4 52.9 109.9C43.5 115.4 41.8 137 34.3 150.1C26.7 163.3 13.4 168 0 172.8L0 0Z" fill="#e80000"></path><path d="M86.4 0C87.6 7.1 88.8 14.2 84.2 19.2C79.7 24.2 69.3 27 63.6 30.6C57.9 34.2 57 38.6 55.2 44C53.4 49.5 50.8 56.1 45.3 56.8C39.7 57.4 31.2 52.2 26.5 55C21.8 57.7 20.9 68.5 17.1 75.1C13.4 81.6 6.7 84 0 86.4L0 0Z" fill="#ff0000"></path></g></svg>