<svg id="visual" viewBox="0 0 960 540" width="960" height="540" xmlns="http://www.w3.org/2000/svg" xmlns:xlink="http://www.w3.org/1999/xlink" version="1.1"><path d="M0 28L14.5 31.7C29 35.3 58 42.7 87.2 46.3C116.3 50 145.7 50 174.8 48.2C204 46.3 233 42.7 262 41.7C291 40.7 320 42.3 349 42.3C378 42.3 407 40.7 436.2 37.2C465.3 33.7 494.7 28.3 523.8 25.7C553 23 582 23 611 26.5C640 30 669 37 698 38.7C727 40.3 756 36.7 785.2 33.2C814.3 29.7 843.7 26.3 872.8 28.2C902 30 931 37 945.5 40.5L960 44L960 0L945.5 0C931 0 902 0 872.8 0C843.7 0 814.3 0 785.2 0C756 0 727 0 698 0C669 0 640 0 611 0C582 0 553 0 523.8 0C494.7 0 465.3 0 436.2 0C407 0 378 0 349 0C320 0 291 0 262 0C233 0 204 0 174.8 0C145.7 0 116.3 0 87.2 0C58 0 29 0 14.5 0L0 0Z" fill="#bd0010"></path><path d="M0 163L14.5 155.8C29 148.7 58 134.3 87.2 136.2C116.3 138 145.7 156 174.8 170.3C204 184.7 233 195.3 262 189.8C291 184.3 320 162.7 349 155.5C378 148.3 407 155.7 436.2 168.3C465.3 181 494.7 199 523.8 192.7C553 186.3 582 155.7 611 151.2C640 146.7 669 168.3 698 164.8C727 161.3 756 132.7 785.2 129C814.3 125.3 843.7 146.7 872.8 147.5C902 148.3 931 128.7 945.5 118.8L960 109L960 42L945.5 38.5C931 35 902 28 872.8 26.2C843.7 24.3 814.3 27.7 785.2 31.2C756 34.7 727 38.3 698 36.7C669 35 640 28 611 24.5C582 21 553 21 523.8 23.7C494.7 26.3 465.3 31.7 436.2 35.2C407 38.7 378 40.3 349 40.3C320 40.3 291 38.7 262 39.7C233 40.7 204 44.3 174.8 46.2C145.7 48 116.3 48 87.2 44.3C58 40.7 29 33.3 14.5 29.7L0 26Z" fill="#d0000e"></path><path d="M0 244L14.5 229.7C29 215.3 58 186.7 87.2 185.8C116.3 185 145.7 212 174.8 226.3C204 240.7 233 242.3 262 231.5C291 220.7 320 197.3 349 196.5C378 195.7 407 217.3 436.2 231.7C465.3 246 494.7 253 523.8 239.5C553 226 582 192 611 184.8C640 177.7 669 197.3 698 202.7C727 208 756 199 785.2 201.7C814.3 204.3 843.7 218.7 872.8 216.8C902 215 931 197 945.5 188L960 179L960 107L945.5 116.8C931 126.7 902 146.3 872.8 145.5C843.7 144.7 814.3 123.3 785.2 127C756 130.7 727 159.3 698 162.8C669 166.3 640 144.7 611 149.2C582 153.7 553 184.3 523.8 190.7C494.7 197 465.3 179 436.2 166.3C407 153.7 378 146.3 349 153.5C320 160.7 291 182.3 262 187.8C233 193.3 204 182.7 174.8 168.3C145.7 154 116.3 136 87.2 134.2C58 132.3 29 146.7 14.5 153.8L0 161Z" fill="#e3000a"></path><path d="M0 293L14.5 278.5C29 264 58 235 87.2 234C116.3 233 145.7 260 174.8 274.5C204 289 233 291 262 281.2C291 271.3 320 249.7 349 248.7C378 247.7 407 267.3 436.2 279C465.3 290.7 494.7 294.3 523.8 281.8C553 269.3 582 240.7 611 238C640 235.3 669 258.7 698 262.2C727 265.7 756 249.3 785.2 252C814.3 254.7 843.7 276.3 872.8 272.8C902 269.3 931 240.7 945.5 226.3L960 212L960 177L945.5 186C931 195 902 213 872.8 214.8C843.7 216.7 814.3 202.3 785.2 199.7C756 197 727 206 698 200.7C669 195.3 640 175.7 611 182.8C582 190 553 224 523.8 237.5C494.7 251 465.3 244 436.2 229.7C407 215.3 378 193.7 349 194.5C320 195.3 291 218.7 262 229.5C233 240.3 204 238.7 174.8 224.3C145.7 210 116.3 183 87.2 183.8C58 184.7 29 213.3 14.5 227.7L0 242Z" fill="#f50004"></path><path d="M0 325L14.5 310.7C29 296.3 58 267.7 87.2 265C116.3 262.3 145.7 285.7 174.8 300.8C204 316 233 323 262 316.7C291 310.3 320 290.7 349 289C378 287.3 407 303.7 436.2 316.3C465.3 329 494.7 338 523.8 329C553 320 582 293 611 285.7C640 278.3 669 290.7 698 287.8C727 285 756 267 785.2 271.5C814.3 276 843.7 303 872.8 303C902 303 931 276 945.5 262.5L960 249L960 210L945.5 224.3C931 238.7 902 267.3 872.8 270.8C843.7 274.3 814.3 252.7 785.2 250C756 247.3 727 263.7 698 260.2C669 256.7 640 233.3 611 236C582 238.7 553 267.3 523.8 279.8C494.7 292.3 465.3 288.7 436.2 277C407 265.3 378 245.7 349 246.7C320 247.7 291 269.3 262 279.2C233 289 204 287 174.8 272.5C145.7 258 116.3 231 87.2 232C58 233 29 262 14.5 276.5L0 291Z" fill="#ff2316"></path><path d="M0 368L14.5 354.5C29 341 58 314 87.2 307.7C116.3 301.3 145.7 315.7 174.8 327.3C204 339 233 348 262 346.3C291 344.7 320 332.3 349 336.8C378 341.3 407 362.7 436.2 374.3C465.3 386 494.7 388 523.8 380C553 372 582 354 611 348.5C640 343 669 350 698 348.2C727 346.3 756 335.7 785.2 340.2C814.3 344.7 843.7 364.3 872.8 355.3C902 346.3 931 308.7 945.5 289.8L960 271L960 247L945.5 260.5C931 274 902 301 872.8 301C843.7 301 814.3 274 785.2 269.5C756 265 727 283 698 285.8C669 288.7 640 276.3 611 283.7C582 291 553 318 523.8 327C494.7 336 465.3 327 436.2 314.3C407 301.7 378 285.3 349 287C320 288.7 291 308.3 262 314.7C233 321 204 314 174.8 298.8C145.7 283.7 116.3 260.3 87.2 263C58 265.7 29 294.3 14.5 308.7L0 323Z" fill="#ff4332"></path><path d="M0 444L14.5 428.7C29 413.3 58 382.7 87.2 376.3C116.3 370 145.7 388 174.8 401.5C204 415 233 424 262 415.8C291 407.7 320 382.3 349 379.7C378 377 407 397 436.2 409.7C465.3 422.3 494.7 427.7 523.8 422.2C553 416.7 582 400.3 611 399.5C640 398.7 669 413.3 698 417.8C727 422.3 756 416.7 785.2 421.2C814.3 425.7 843.7 440.3 872.8 436.8C902 433.3 931 411.7 945.5 400.8L960 390L960 269L945.5 287.8C931 306.7 902 344.3 872.8 353.3C843.7 362.3 814.3 342.7 785.2 338.2C756 333.7 727 344.3 698 346.2C669 348 640 341 611 346.5C582 352 553 370 523.8 378C494.7 386 465.3 384 436.2 372.3C407 360.7 378 339.3 349 334.8C320 330.3 291 342.7 262 344.3C233 346 204 337 174.8 325.3C145.7 313.7 116.3 299.3 87.2 305.7C58 312 29 339 14.5 352.5L0 366Z" fill="#ff5a4a"></path><path d="M0 541L14.5 541C29 541 58 541 87.2 541C116.3 541 145.7 541 174.8 541C204 541 233 541 262 541C291 541 320 541 349 541C378 541 407 541 436.2 541C465.3 541 494.7 541 523.8 541C553 541 582 541 611 541C640 541 669 541 698 541C727 541 756 541 785.2 541C814.3 541 843.7 541 872.8 541C902 541 931 541 945.5 541L960 541L960 388L945.5 398.8C931 409.7 902 431.3 872.8 434.8C843.7 438.3 814.3 423.7 785.2 419.2C756 414.7 727 420.3 698 415.8C669 411.3 640 396.7 611 397.5C582 398.3 553 414.7 523.8 420.2C494.7 425.7 465.3 420.3 436.2 407.7C407 395 378 375 349 377.7C320 380.3 291 405.7 262 413.8C233 422 204 413 174.8 399.5C145.7 386 116.3 368 87.2 374.3C58 380.7 29 411.3 14.5 426.7L0 442Z" fill="#ff6e60"></path></svg>